<svg width="22" height="15" viewBox="0 0 22 15" fill="none" xmlns="http://www.w3.org/2000/svg">
<path d="M1.7 0.560059C1.0408 0.560059 0.5 1.10086 0.5 1.76006V5.96006H0.8C1.79767 5.96006 2.6 6.76239 2.6 7.76006C2.6 8.75773 1.79767 9.56006 0.8 9.56006H0.5V13.7601C0.5 14.4193 1.0408 14.9601 1.7 14.9601H20.3C20.9592 14.9601 21.5 14.4193 21.5 13.7601V9.56006H21.2C20.2023 9.56006 19.4 8.75773 19.4 7.76006C19.4 6.76239 20.2023 5.96006 21.2 5.96006H21.5V1.76006C21.5 1.10086 20.9592 0.560059 20.3 0.560059H1.7ZM1.7 1.16006H6.2C6.2 1.23962 6.23161 1.31593 6.28787 1.37219C6.34413 1.42845 6.42044 1.46006 6.5 1.46006C6.57957 1.46006 6.65587 1.42845 6.71213 1.37219C6.76839 1.31593 6.8 1.23962 6.8 1.16006H20.3C20.635 1.16006 20.9 1.42506 20.9 1.76006V5.421C19.7254 5.57546 18.8 6.54442 18.8 7.76006C18.8 8.9757 19.7254 9.94465 20.9 10.0991V13.7601C20.9 14.0951 20.635 14.3601 20.3 14.3601H6.8C6.8 14.2805 6.76839 14.2042 6.71213 14.1479C6.65587 14.0917 6.57957 14.0601 6.5 14.0601C6.42044 14.0601 6.34413 14.0917 6.28787 14.1479C6.23161 14.2042 6.2 14.2805 6.2 14.3601H1.7C1.365 14.3601 1.1 14.0951 1.1 13.7601V10.0991C2.27462 9.94465 3.2 8.9757 3.2 7.76006C3.2 6.54442 2.27462 5.57546 1.1 5.421V1.76006C1.1 1.42506 1.365 1.16006 1.7 1.16006ZM6.5 2.06006C6.42044 2.06006 6.34413 2.09167 6.28787 2.14793C6.23161 2.20419 6.2 2.28049 6.2 2.36006C6.2 2.43962 6.23161 2.51593 6.28787 2.57219C6.34413 2.62845 6.42044 2.66006 6.5 2.66006C6.57957 2.66006 6.65587 2.62845 6.71213 2.57219C6.76839 2.51593 6.8 2.43962 6.8 2.36006C6.8 2.28049 6.76839 2.20419 6.71213 2.14793C6.65587 2.09167 6.57957 2.06006 6.5 2.06006ZM6.5 3.26006C6.42044 3.26006 6.34413 3.29167 6.28787 3.34793C6.23161 3.40419 6.2 3.48049 6.2 3.56006C6.2 3.63962 6.23161 3.71593 6.28787 3.77219C6.34413 3.82845 6.42044 3.86006 6.5 3.86006C6.57957 3.86006 6.65587 3.82845 6.71213 3.77219C6.76839 3.71593 6.8 3.63962 6.8 3.56006C6.8 3.48049 6.76839 3.40419 6.71213 3.34793C6.65587 3.29167 6.57957 3.26006 6.5 3.26006ZM10.7293 4.05342C9.8356 4.05342 9.2 4.76866 9.2 5.77666C9.2 6.78976 9.8356 7.50459 10.7293 7.50459C11.623 7.50459 12.2539 6.78946 12.2539 5.77666C12.2539 4.76356 11.623 4.05342 10.7293 4.05342ZM14.985 4.17764L12.4725 7.6083L9.73613 11.3425H10.6496L13.1076 7.98096L15.8885 4.17764H14.985ZM6.5 4.46006C6.42044 4.46006 6.34413 4.49167 6.28787 4.54793C6.23161 4.60419 6.2 4.68049 6.2 4.76006C6.2 4.83962 6.23161 4.91593 6.28787 4.97219C6.34413 5.02845 6.42044 5.06006 6.5 5.06006C6.57957 5.06006 6.65587 5.02845 6.71213 4.97219C6.76839 4.91593 6.8 4.83962 6.8 4.76006C6.8 4.68049 6.76839 4.60419 6.71213 4.54793C6.65587 4.49167 6.57957 4.46006 6.5 4.46006ZM10.7293 4.68916C11.1763 4.68916 11.4594 5.10616 11.4594 5.77666C11.4594 6.43216 11.1661 6.86885 10.7293 6.86885C10.2874 6.86885 9.99453 6.43696 9.99453 5.77666C9.99453 5.11636 10.2823 4.68916 10.7293 4.68916ZM6.5 5.66006C6.42044 5.66006 6.34413 5.69167 6.28787 5.74793C6.23161 5.80419 6.2 5.88049 6.2 5.96006C6.2 6.03962 6.23161 6.11593 6.28787 6.17219C6.34413 6.22845 6.42044 6.26006 6.5 6.26006C6.57957 6.26006 6.65587 6.22845 6.71213 6.17219C6.76839 6.11593 6.8 6.03962 6.8 5.96006C6.8 5.88049 6.76839 5.80419 6.71213 5.74793C6.65587 5.69167 6.57957 5.66006 6.5 5.66006ZM6.5 6.86006C6.42044 6.86006 6.34413 6.89167 6.28787 6.94793C6.23161 7.00419 6.2 7.08049 6.2 7.16006C6.2 7.23962 6.23161 7.31593 6.28787 7.37219C6.34413 7.42845 6.42044 7.46006 6.5 7.46006C6.57957 7.46006 6.65587 7.42845 6.71213 7.37219C6.76839 7.31593 6.8 7.23962 6.8 7.16006C6.8 7.08049 6.76839 7.00419 6.71213 6.94793C6.65587 6.89167 6.57957 6.86006 6.5 6.86006ZM14.876 8.01553C13.9823 8.01553 13.3461 8.73077 13.3461 9.73877C13.3461 10.7519 13.9823 11.4667 14.876 11.4667C15.7697 11.4667 16.4 10.7516 16.4 9.73877C16.4 8.72567 15.7697 8.01553 14.876 8.01553ZM6.5 8.06006C6.42044 8.06006 6.34413 8.09167 6.28787 8.14793C6.23161 8.20419 6.2 8.28049 6.2 8.36006C6.2 8.43962 6.23161 8.51593 6.28787 8.57219C6.34413 8.62845 6.42044 8.66006 6.5 8.66006C6.57957 8.66006 6.65587 8.62845 6.71213 8.57219C6.76839 8.51593 6.8 8.43962 6.8 8.36006C6.8 8.28049 6.76839 8.20419 6.71213 8.14793C6.65587 8.09167 6.57957 8.06006 6.5 8.06006ZM14.876 8.65127C15.323 8.65127 15.6055 9.06827 15.6055 9.73877C15.6055 10.3943 15.3128 10.831 14.876 10.831C14.4341 10.831 14.1406 10.3991 14.1406 9.73877C14.1406 9.07847 14.429 8.65127 14.876 8.65127ZM6.5 9.26006C6.42044 9.26006 6.34413 9.29167 6.28787 9.34793C6.23161 9.40419 6.2 9.48049 6.2 9.56006C6.2 9.63962 6.23161 9.71593 6.28787 9.77219C6.34413 9.82845 6.42044 9.86006 6.5 9.86006C6.57957 9.86006 6.65587 9.82845 6.71213 9.77219C6.76839 9.71593 6.8 9.63962 6.8 9.56006C6.8 9.48049 6.76839 9.40419 6.71213 9.34793C6.65587 9.29167 6.57957 9.26006 6.5 9.26006ZM6.5 10.4601C6.42044 10.4601 6.34413 10.4917 6.28787 10.5479C6.23161 10.6042 6.2 10.6805 6.2 10.7601C6.2 10.8396 6.23161 10.9159 6.28787 10.9722C6.34413 11.0285 6.42044 11.0601 6.5 11.0601C6.57957 11.0601 6.65587 11.0285 6.71213 10.9722C6.76839 10.9159 6.8 10.8396 6.8 10.7601C6.8 10.6805 6.76839 10.6042 6.71213 10.5479C6.65587 10.4917 6.57957 10.4601 6.5 10.4601ZM6.5 11.6601C6.42044 11.6601 6.34413 11.6917 6.28787 11.7479C6.23161 11.8042 6.2 11.8805 6.2 11.9601C6.2 12.0396 6.23161 12.1159 6.28787 12.1722C6.34413 12.2285 6.42044 12.2601 6.5 12.2601C6.57957 12.2601 6.65587 12.2285 6.71213 12.1722C6.76839 12.1159 6.8 12.0396 6.8 11.9601C6.8 11.8805 6.76839 11.8042 6.71213 11.7479C6.65587 11.6917 6.57957 11.6601 6.5 11.6601ZM6.5 12.8601C6.42044 12.8601 6.34413 12.8917 6.28787 12.9479C6.23161 13.0042 6.2 13.0805 6.2 13.1601C6.2 13.2396 6.23161 13.3159 6.28787 13.3722C6.34413 13.4285 6.42044 13.4601 6.5 13.4601C6.57957 13.4601 6.65587 13.4285 6.71213 13.3722C6.76839 13.3159 6.8 13.2396 6.8 13.1601C6.8 13.0805 6.76839 13.0042 6.71213 12.9479C6.65587 12.8917 6.57957 12.8601 6.5 12.8601Z" fill="black"/>
</svg>
