<svg width="67" height="41" viewBox="0 0 67 41" fill="none" xmlns="http://www.w3.org/2000/svg">
<path d="M60.7298 1.64784C55.9781 1.64784 48.979 4.60157 41.5305 7.87636C40.5031 7.5553 39.4115 7.17004 38.3841 6.78476C27.0829 2.67522 15.3964 -1.56274 1.59087 1.58363L1.52666 1.64784L0.37085 4.60157L0.691908 4.40894C0.691908 4.40894 3.51722 2.80365 9.55311 2.61101C15.1395 2.48259 24.707 3.50997 38.641 9.16059C35.0451 10.7659 31.4493 12.3712 27.9818 13.6554C27.4681 13.3986 27.0187 13.1417 26.505 12.8207C21.368 9.99535 16.8732 7.5553 13.0205 7.5553C10.2594 7.5553 8.01203 9.80271 8.01203 12.4996C8.01203 15.2607 10.2594 17.5081 13.0205 17.5081C17.3869 17.5081 22.5881 16.0312 27.9818 13.9765C30.9356 15.5818 34.0177 17.187 37.3567 18.5355C36.9715 18.7923 36.5862 18.985 36.2009 19.1776C34.2746 20.3334 32.284 21.4892 30.2935 22.4524C26.7618 20.526 23.487 18.9208 20.6617 18.9208C18.8638 18.9208 17.3869 20.3976 17.3869 22.1313C17.3869 23.9293 18.8638 25.4061 20.6617 25.4061C23.9365 25.4061 27.1471 24.2503 30.2935 22.7092C30.8071 22.9661 31.7703 23.544 31.7703 23.544C33.5682 24.5714 35.4304 25.5346 37.2925 26.4335C36.3293 27.0114 35.3662 27.6535 34.4672 28.3599C33.4398 29.002 32.4767 29.7083 31.5135 30.2862C29.1376 29.323 26.826 28.7451 25.5418 28.7451C24.386 28.7451 23.4228 29.7083 23.4228 30.8641C23.4228 32.0199 24.386 32.9831 25.5418 32.9831C27.3397 32.9831 29.3945 31.9557 31.5777 30.5431C32.5409 30.9925 33.5682 31.442 34.5956 32.0199C36.9072 33.3042 40.8242 36.001 40.8242 39.5327V39.6611L42.8789 40.0464L42.9431 39.918C42.9431 39.8537 43.2 38.2484 42.1084 36.1937C41.081 34.2673 38.7694 31.5704 33.183 29.5157C33.6325 29.1946 34.1462 28.8736 34.5956 28.5525C35.5588 27.8462 36.5862 27.2041 37.5494 26.5619C40.1178 27.7178 42.6863 28.5525 45.0621 28.5525C46.539 28.5525 47.6948 27.3325 47.6948 25.9198C47.6948 24.5072 46.539 23.2871 45.0621 23.2871C42.7505 23.2871 40.1178 24.6356 37.5494 26.2409C35.6872 25.4061 33.7609 24.3145 31.8987 23.2871C31.8987 23.2871 30.9998 22.8377 30.5503 22.5808C32.5409 21.6176 34.4672 20.526 36.3293 19.4344C36.7788 19.1776 37.2283 18.9208 37.6136 18.6639C41.7873 20.3334 46.2821 21.4892 51.1622 21.4892C53.4096 21.4892 55.2076 19.6913 55.2076 17.4439C55.2076 15.2607 53.4096 13.4628 51.1622 13.4628C46.6674 13.4628 42.0442 15.8386 37.6136 18.4071C34.3388 17.0586 31.1924 15.4533 28.3029 13.848C32.0914 12.3712 36.0083 10.6375 39.861 8.90375C40.3747 8.6469 40.9526 8.45427 41.5305 8.19742C48.0801 10.509 54.3728 12.4996 60.7298 12.4996C64.7109 12.4996 66.8941 10.8301 66.8941 7.81215C66.8941 4.40893 64.133 1.64784 60.7298 1.64784ZM13.0205 17.2513C10.3879 17.2513 8.26888 15.1323 8.26888 12.4996C8.26888 9.93114 10.3879 7.81215 13.0205 7.81215C16.809 7.81215 21.2396 10.2522 26.3765 13.0775C26.826 13.3343 27.2113 13.527 27.6608 13.7838C22.3954 15.8386 17.3227 17.2513 13.0205 17.2513ZM20.6617 25.1493C18.9922 25.1493 17.6438 23.8008 17.6438 22.1313C17.6438 20.526 18.9922 19.1776 20.6617 19.1776C23.3586 19.1776 26.5692 20.7187 30.0366 22.5808C26.9545 24.0577 23.8081 25.1493 20.6617 25.1493ZM25.5418 32.7262C24.5144 32.7262 23.6797 31.8915 23.6797 30.8641C23.6797 29.8367 24.5144 29.002 25.5418 29.002C26.7618 29.002 28.945 29.5157 31.2566 30.4788C29.1376 31.7631 27.2113 32.7262 25.5418 32.7262ZM41.8515 36.2579C42.7505 37.9916 42.7505 39.34 42.6863 39.7895L41.081 39.4685C41.0168 35.4874 36.2651 32.2126 31.8345 30.4146C32.2198 30.1578 32.5409 29.9009 32.9261 29.7083C38.5125 31.6989 40.8884 34.3958 41.8515 36.2579ZM45.0621 23.544C46.3464 23.544 47.438 24.6356 47.438 25.9198C47.438 27.2041 46.3464 28.2957 45.0621 28.2957C42.7505 28.2957 40.3105 27.4609 37.8704 26.3693C40.3747 24.8282 42.8147 23.544 45.0621 23.544ZM51.1622 13.7196C53.2812 13.7196 54.9507 15.3891 54.9507 17.4439C54.9507 19.4987 53.2812 21.2324 51.1622 21.2324C46.4106 21.2324 42.0442 20.0766 37.9346 18.5355C42.4294 15.9028 46.7316 13.7196 51.1622 13.7196ZM38.962 9.03217C25.7344 3.6384 16.4237 2.35416 10.7089 2.35416C10.2594 2.35416 9.87417 2.35416 9.55311 2.35416C4.48039 2.5468 1.71929 3.6384 0.884542 4.02367L1.71929 1.84048C15.3964 -1.30589 27.0829 2.93207 38.3199 7.04161C39.2831 7.36267 40.2463 7.68373 41.1452 8.069C40.3747 8.39006 38.962 9.03217 38.962 9.03217ZM60.7298 12.2428C54.5012 12.2428 48.2727 10.3164 41.8515 8.00478C49.2359 4.79421 56.0423 1.90468 60.7298 1.90468C64.0045 1.90468 66.6372 4.53736 66.6372 7.81215C66.6372 11.4722 63.4266 12.2428 60.7298 12.2428Z" fill="#333333"/>
</svg>
