<svg width="47" height="47" viewBox="0 0 47 47" fill="none" xmlns="http://www.w3.org/2000/svg">
<path d="M23.5 0.307617C10.817 0.307617 0.5 10.6246 0.5 23.3076C0.5 35.9906 10.817 46.3076 23.5 46.3076C36.183 46.3076 46.5 35.9906 46.5 23.3076C46.5 18.7476 45.1603 14.4969 42.8633 10.9189L41.4941 12.5361C43.3891 15.6901 44.5 19.3676 44.5 23.3076C44.5 34.8866 35.079 44.3076 23.5 44.3076C11.921 44.3076 2.5 34.8866 2.5 23.3076C2.5 11.7286 11.921 2.30762 23.5 2.30762C28.943 2.30762 33.8939 4.40738 37.6289 7.81738L38.9375 6.27246C34.8525 2.56746 29.435 0.307617 23.5 0.307617ZM41.7363 6.06152L22.4141 28.8623L14.2812 21.2764L12.918 22.7393L22.584 31.7549L43.2637 7.35449L41.7363 6.06152Z" fill="#A8715A"/>
</svg>
