<svg width="79" height="32" viewBox="0 0 79 32" fill="none" xmlns="http://www.w3.org/2000/svg">
<g opacity="0.8" clip-path="url(#clip0_1393_427)">
<path d="M2.18275 24.3806V31.629H0V15.6084H10.6667L10.955 17.1322C10.9138 17.1322 10.9138 17.1322 10.8726 17.091C10.7902 17.091 10.749 17.091 10.749 17.0498C10.5843 16.8027 9.96654 16.5556 8.93694 16.3085C7.86615 16.0614 6.46589 15.9379 4.69498 15.9379H2.18275V23.9688H9.14286V24.3394H2.18275V24.3806Z" fill="black"/>
<path d="M18.2857 27.099C18.2857 26.6871 18.2857 26.2753 18.2857 25.8634C18.2857 25.4104 18.2445 24.9986 18.2445 24.5455C18.0798 24.9162 17.7915 25.1633 17.3796 25.4104C16.9678 25.6163 16.5148 25.8223 16.0206 25.987C15.5263 26.1517 14.991 26.3165 14.4556 26.44C13.9202 26.6048 13.3848 26.7695 12.9318 27.0166C12.4787 27.2637 12.1081 27.552 11.8198 27.9226C11.5315 28.2933 11.3668 28.7875 11.3668 29.3641C11.3668 30.023 11.5315 30.4761 11.861 30.8055C12.1904 31.135 12.6435 31.2997 13.22 31.2997C13.7966 31.2997 14.5379 31.135 15.3204 30.7643C16.1441 30.3937 17.0502 29.8583 18.0386 29.1582C17.7915 29.4053 17.462 29.6936 17.0502 30.023C16.6383 30.3525 16.1441 30.6408 15.6087 30.9291C15.0733 31.2174 14.5379 31.4645 14.0025 31.6292C13.426 31.8351 12.9318 31.9175 12.4787 31.9175C12.1081 31.9175 11.6962 31.8763 11.3256 31.7939C10.9549 31.7116 10.5843 31.588 10.2548 31.3821C9.92532 31.1762 9.67821 30.9291 9.47229 30.5996C9.26637 30.2701 9.14282 29.8171 9.14282 29.2817C9.14282 28.8287 9.26637 28.4168 9.51348 28.0874C9.76058 27.7579 10.0901 27.4696 10.5019 27.2225C10.9137 26.9754 11.4079 26.7695 11.9433 26.6048C12.4787 26.44 13.0141 26.2753 13.5907 26.1517C14.1673 25.987 14.7027 25.8634 15.2381 25.7399C15.7735 25.6163 16.2677 25.4516 16.6795 25.2869C17.1325 25.1221 17.462 24.9162 17.7503 24.7103C17.9974 24.4632 18.1621 24.2161 18.2033 23.8866C18.1209 23.3924 18.0386 22.9394 17.8738 22.4863C17.7503 22.0333 17.5444 21.6627 17.2973 21.3332C17.0502 21.0037 16.7207 20.7566 16.35 20.5507C15.9794 20.3448 15.4852 20.3036 14.9498 20.3036C14.1261 20.3448 13.5083 20.4271 13.0965 20.5919C12.6846 20.7566 12.3964 20.9625 12.1904 21.2096C11.9845 21.4567 11.9433 21.7039 11.9433 21.9921C11.9433 22.2804 11.9433 22.5275 11.9433 22.7746C11.9433 23.0629 11.861 23.2688 11.6962 23.4336C11.5315 23.5983 11.3256 23.6395 11.0785 23.6395C10.8314 23.6395 10.5843 23.5571 10.3372 23.3512C10.0901 23.1453 10.0077 22.8982 10.0077 22.5687C10.0077 22.1157 10.2136 21.7039 10.5843 21.3744C10.9549 21.0449 11.4491 20.7566 11.9845 20.5507C12.5199 20.3448 13.0965 20.18 13.6731 20.0977C14.2496 20.0153 14.7027 19.9741 15.0733 19.9741C16.2265 19.9741 17.1737 20.1389 17.8738 20.4683C18.574 20.7978 19.1094 21.2508 19.48 21.7862C19.8507 22.3216 20.0978 22.9806 20.2213 23.7219C20.3449 24.4632 20.3861 25.2045 20.3861 26.0282V31.6704H18.3269V27.099H18.2857Z" fill="black"/>
<path d="M24.9164 30.8057C25.1223 31.094 25.4518 31.2999 25.9048 31.4235C26.3579 31.547 26.8109 31.6294 27.3463 31.6294C27.8405 31.6294 28.3759 31.5882 28.8701 31.4646C29.4055 31.3411 29.8585 31.1763 30.2703 30.9704C30.6822 30.7645 31.0528 30.5174 31.2999 30.1879C31.5882 29.8996 31.7118 29.529 31.7118 29.1171C31.7118 28.6229 31.5059 28.2111 31.0528 27.9228C30.5998 27.6345 30.0232 27.3874 29.3643 27.1815C28.7053 26.9756 27.964 26.7697 27.1815 26.6049C26.399 26.4402 25.6577 26.1931 24.9988 25.946C24.3398 25.6577 23.7633 25.3282 23.3102 24.8752C22.8572 24.4222 22.6513 23.8456 22.6513 23.1455C22.6513 22.4865 22.816 21.9511 23.1455 21.5393C23.475 21.1274 23.928 20.798 24.4222 20.5509C24.9576 20.3038 25.493 20.139 26.1107 20.0567C26.7285 19.9743 27.2639 19.9331 27.7993 19.9331C28.0464 19.9331 28.3759 19.9743 28.7877 20.0155C29.1996 20.0567 29.6114 20.1802 29.982 20.3449C30.3527 20.5097 30.7234 20.6744 31.0117 20.9215C31.2999 21.1686 31.4647 21.4981 31.4647 21.8688C31.4647 22.1159 31.3823 22.3218 31.1764 22.4865C30.9705 22.6513 30.7645 22.7336 30.5174 22.7336C30.188 22.7336 29.982 22.6513 29.8173 22.5277C29.6526 22.4041 29.5702 22.2394 29.4878 22.0335C29.4055 21.8688 29.3643 21.6628 29.3231 21.4569C29.2819 21.251 29.2407 21.0863 29.1172 20.9627C28.9113 20.7156 28.6642 20.5097 28.4171 20.4273C28.1288 20.3449 27.7993 20.2626 27.4286 20.2626C27.0168 20.2626 26.605 20.3038 26.1931 20.3861C25.7401 20.4685 25.3694 20.5921 24.9988 20.7568C24.6281 20.9215 24.3398 21.1686 24.1339 21.4157C23.8868 21.704 23.8044 22.0335 23.8044 22.4041C23.8044 22.7748 23.928 23.1043 24.2163 23.3514C24.4634 23.5985 24.834 23.8044 25.2459 24.0103C25.6577 24.1751 26.1519 24.3398 26.7285 24.4634C27.2639 24.5869 27.8405 24.7105 28.4171 24.8752C28.9936 25.0399 29.5702 25.2047 30.1056 25.3694C30.641 25.5341 31.1352 25.7812 31.5882 26.0283C32.0001 26.2754 32.3707 26.6049 32.6178 26.9756C32.8649 27.3462 33.0297 27.8404 33.0297 28.3758C33.0297 28.9936 32.8649 29.529 32.5355 29.982C32.206 30.435 31.7941 30.7645 31.2588 31.0528C30.7234 31.3411 30.1468 31.547 29.4878 31.6706C28.8289 31.7941 28.1288 31.8765 27.4286 31.8765C27.1815 31.8765 26.9344 31.8765 26.605 31.8353C26.2755 31.7941 25.946 31.7941 25.5754 31.7117C25.2047 31.6706 24.8752 31.5882 24.5046 31.4646C24.1339 31.3823 23.8456 31.2587 23.5573 31.094C23.2691 30.9292 23.0631 30.7645 22.8572 30.5586C22.6925 30.3527 22.6101 30.1056 22.6101 29.7761C22.6101 29.529 22.6925 29.3643 22.8984 29.1995C23.1043 29.0348 23.3102 28.9524 23.5573 28.9524C23.8868 28.9524 24.0927 29.0348 24.2575 29.1583C24.4222 29.2819 24.5046 29.4466 24.5869 29.6525C24.6281 29.8585 24.7105 30.0232 24.7105 30.2291C24.7517 30.5174 24.834 30.6821 24.9164 30.8057Z" fill="black"/>
<path d="M34.5945 15.6086L36.6537 14.4966V31.6703H34.5945V15.6086ZM36.9008 21.3331C37.0655 21.086 37.3126 20.8801 37.5597 20.7154C37.8068 20.5506 38.0951 20.3859 38.4246 20.3035C38.7541 20.2212 39.0424 20.0976 39.3718 20.0564C39.7013 20.0152 39.9896 19.9741 40.3191 19.9741C41.2663 19.9741 42.0488 20.0976 42.6666 20.3035C43.2843 20.5095 43.8197 20.8389 44.1904 21.2096C44.6022 21.5802 44.8905 22.0333 45.0964 22.5275C45.3023 23.0217 45.4671 23.5571 45.5494 24.0925C45.6318 24.669 45.673 25.2044 45.7142 25.8222C45.7142 26.3988 45.7142 26.9754 45.7142 27.5107V31.6703H43.655V27.3048C43.655 26.893 43.655 26.4811 43.655 25.9869C43.655 25.4927 43.6138 24.9985 43.5726 24.4631C43.5314 23.9277 43.4079 23.4335 43.2843 22.9393C43.1608 22.4451 42.9548 22.0333 42.7077 21.6214C42.4606 21.2508 42.09 20.9213 41.6781 20.7154C41.2663 20.4683 40.7309 20.3447 40.072 20.3447C39.5366 20.3447 39.1247 20.3859 38.7541 20.4683C38.3834 20.5506 38.0951 20.633 37.848 20.7154C37.6009 20.7977 37.395 20.9213 37.2714 21.0448C37.1067 21.1684 36.9832 21.2508 36.9008 21.3331Z" fill="black"/>
<path d="M50.3813 19.6036V31.6293H48.3221V20.7155L50.3813 19.6036Z" fill="black"/>
<path d="M47.7577 16.0611C47.4331 16.2318 46.6311 16.3076 46.6311 16.3076V16.611C46.6311 16.611 47.4331 16.6869 47.7577 16.8576C48.0632 17.0282 48.3305 17.2558 48.5214 17.5592C48.7315 17.8625 48.8651 18.2039 48.9606 18.6021C49.0561 19.0003 49.0942 19.3435 49.0942 19.3435H49.3616C49.3616 19.3435 49.4558 18.7991 49.4952 18.6021C49.5907 18.2039 49.7434 17.8625 49.9344 17.5592C50.1253 17.2558 50.3735 17.0282 50.6981 16.8576C51.0227 16.6869 51.8247 16.611 51.8247 16.611V16.3076C51.8247 16.3076 51.0227 16.2318 50.6981 16.0611C50.3926 15.8905 50.1253 15.6629 49.9344 15.3595C49.7243 15.0561 49.5907 14.7148 49.4952 14.3166C49.4514 14.0819 49.3616 13.4839 49.3616 13.4839H49.0942C49.0942 13.4839 49.0055 14.165 48.9606 14.3166C48.8651 14.7148 48.7124 15.0561 48.5214 15.3595C48.3305 15.6629 48.0823 15.8905 47.7577 16.0611Z" fill="black"/>
<path d="M52.8584 25.946C52.8584 25.1635 52.982 24.4222 53.2291 23.6809C53.4762 22.9395 53.888 22.3218 54.4234 21.7452C54.9588 21.1686 55.6177 20.7568 56.4002 20.4273C57.1827 20.0978 58.13 19.9331 59.2007 19.9331C60.2715 19.9331 61.2188 20.0978 62.0013 20.4273C62.7838 20.7568 63.4427 21.2098 63.9781 21.7864C64.5135 22.363 64.8841 22.9807 65.1312 23.722C65.3783 24.4222 65.5019 25.2047 65.5019 25.946C65.5019 26.7285 65.3783 27.4698 65.1312 28.2111C64.8841 28.9524 64.4723 29.5702 63.9369 30.1467C63.4015 30.7233 62.7426 31.1352 61.9601 31.4646C61.1776 31.7941 60.2303 31.9588 59.2007 31.9588C58.1711 31.9588 57.1827 31.7941 56.4002 31.4646C55.6177 31.1352 54.9588 30.6821 54.4234 30.1056C53.888 29.529 53.5173 28.9112 53.2291 28.1699C52.982 27.4698 52.8584 26.7285 52.8584 25.946ZM58.13 20.4273C57.4298 20.4273 56.8532 20.592 56.4002 20.9215C55.9472 21.251 55.5765 21.6628 55.3294 22.157C55.0823 22.6513 54.9588 23.269 54.8764 23.928C54.8352 24.5869 54.8764 25.287 55 25.9872C55.1235 26.6873 55.3294 27.3462 55.6589 28.0464C55.9472 28.7053 56.3179 29.2819 56.7709 29.8173C57.2239 30.3115 57.7181 30.7645 58.2947 31.0528C58.8713 31.3823 59.489 31.547 60.1892 31.547C60.8893 31.547 61.4247 31.3823 61.8777 31.0528C62.3307 30.7233 62.6602 30.3115 62.9073 29.8173C63.1544 29.3231 63.278 28.7053 63.3603 28.0464C63.4015 27.3874 63.3603 26.6873 63.2368 25.9872C63.1132 25.287 62.8661 24.6281 62.5778 23.928C62.2895 23.269 61.9189 22.6924 61.4659 22.157C61.0128 21.6628 60.5186 21.2098 59.9421 20.9215C59.3655 20.6332 58.8301 20.4273 58.13 20.4273Z" fill="black"/>
<path d="M67.2683 20.7155L69.3275 19.6035V31.6293H67.2683V20.7155ZM69.5334 21.3332C69.6982 21.0861 69.9453 20.8802 70.1924 20.7155C70.4395 20.5507 70.7278 20.386 71.0572 20.3036C71.3867 20.2213 71.675 20.0977 72.0045 20.0565C72.3339 20.0154 72.6222 19.9742 72.9517 19.9742C73.8989 19.9742 74.6814 20.0977 75.2992 20.3036C75.917 20.5096 76.4524 20.839 76.823 21.2097C77.2348 21.5804 77.5231 22.0334 77.7291 22.5276C77.935 23.0218 78.0997 23.5572 78.1821 24.0926C78.2645 24.6692 78.3056 25.2045 78.3468 25.8223C78.3468 26.3989 78.3468 26.9755 78.3468 27.5109V31.6704H76.2876V27.3049C76.2876 26.8931 76.2876 26.4813 76.2876 25.987C76.2876 25.4928 76.2464 24.9986 76.2052 24.4632C76.1641 23.9278 76.0405 23.4336 75.917 22.9394C75.7934 22.4452 75.5875 22.0334 75.3404 21.6215C75.0933 21.2509 74.7226 20.9214 74.3108 20.7155C73.8989 20.4684 73.3635 20.3448 72.7046 20.3448C72.1692 20.3448 71.7574 20.386 71.3867 20.4684C71.0161 20.5507 70.7278 20.6331 70.4807 20.7155C70.2336 20.7979 70.0276 20.9214 69.9041 21.045C69.7394 21.1685 69.6158 21.2509 69.5334 21.3332Z" fill="black"/>
<path d="M22.4813 0.864746C24.1287 0.864746 25.5701 1.11185 26.8057 1.56487C28.0412 2.05908 29.0708 2.67684 29.8945 3.45934C30.7181 4.24184 31.3359 5.1067 31.7477 6.1363C32.1596 7.12472 32.3655 8.15432 32.3655 9.22511C32.3655 10.2547 32.1596 11.2843 31.7477 12.2727C31.3359 13.2611 30.7181 14.1672 29.8945 14.9497C29.0708 15.7322 28.0412 16.3499 26.8057 16.8442C25.5701 17.3384 24.1287 17.5855 22.4813 17.5855C20.834 17.5855 19.3925 17.3384 18.157 16.8442C16.9215 16.3499 15.8919 15.7322 15.0682 14.9497C14.2445 14.1672 13.6268 13.2611 13.2149 12.2727C12.8031 11.2843 12.5972 10.2547 12.5972 9.22511C12.5972 8.15432 12.8031 7.1659 13.2149 6.1363C13.6268 5.14789 14.2445 4.24184 15.0682 3.45934C15.8919 2.67684 16.9215 2.05908 18.157 1.56487C19.3925 1.11185 20.834 0.864746 22.4813 0.864746ZM23.7169 17.0501C24.9524 17.0501 26.0232 16.8442 26.888 16.3911C27.7529 15.9381 28.453 15.3615 28.9884 14.6202C29.5238 13.8789 29.8533 13.0552 30.018 12.108C30.1827 11.1608 30.1827 10.2135 30.0592 9.22511C29.8945 8.23669 29.6062 7.28946 29.112 6.34222C28.6178 5.39499 28.0412 4.57131 27.2999 3.83C26.5586 3.08868 25.6937 2.51211 24.6641 2.05908C23.6345 1.60606 22.5225 1.40014 21.287 1.40014C20.0103 1.40014 18.9395 1.60606 18.0746 2.05908C17.2098 2.51211 16.5097 3.08868 16.0154 3.83C15.48 4.57131 15.1506 5.39499 14.9858 6.34222C14.8211 7.28946 14.8211 8.23669 14.9447 9.22511C15.1094 10.2135 15.3977 11.1608 15.8507 12.108C16.3037 13.0552 16.9215 13.8789 17.6628 14.6202C18.4041 15.3615 19.3102 15.9381 20.2986 16.3911C21.3282 16.803 22.4813 17.0501 23.7169 17.0501Z" fill="black"/>
<path d="M34.5945 4.73599L36.6537 3.62402V10.4606C36.6949 11.1607 36.8184 11.8608 37.0243 12.4786C37.2303 13.0964 37.5185 13.6729 37.9304 14.126C38.301 14.579 38.7541 14.9908 39.3306 15.2379C39.866 15.5262 40.4838 15.6498 41.1839 15.6498C42.0488 15.6498 42.7077 15.3615 43.2431 14.8261C43.7785 14.2907 44.108 13.5906 44.3139 12.7669C44.5198 11.9432 44.561 11.0372 44.4787 10.0899C44.3963 9.14268 44.1492 8.23664 43.7785 7.41296C43.4079 6.58927 42.9137 5.88915 42.2959 5.35375C41.6781 4.81836 40.9368 4.53007 40.1131 4.53007C39.8249 4.53007 39.4954 4.57126 39.2071 4.69481C38.9188 4.81836 38.6305 4.94191 38.3422 5.10665C38.0539 5.27138 37.8068 5.47731 37.6009 5.68323C37.3538 5.88915 37.1891 6.13625 37.0655 6.34217C37.395 5.64204 37.9304 5.06546 38.6305 4.61244C39.3718 4.15942 40.1543 3.9535 40.978 3.9535C42.0076 3.9535 42.8725 4.11823 43.6138 4.4477C44.3551 4.77718 44.9317 5.2302 45.4259 5.80678C45.8789 6.38335 46.2496 7.00111 46.4555 7.74243C46.6614 8.48374 46.785 9.18387 46.785 9.96637C46.785 10.7489 46.6614 11.449 46.4555 12.1903C46.2496 12.8904 45.8789 13.5494 45.4259 14.126C44.9729 14.7025 44.3551 15.1556 43.6138 15.485C42.8725 15.8145 42.0076 16.0204 41.0192 16.0204C39.9484 16.0204 39.0424 15.8557 38.3422 15.5674C37.6421 15.2791 37.1067 14.8673 36.6949 14.3731V21.4155H34.6357V4.73599H34.5945Z" fill="black"/>
<path d="M51.5954 7.90716C51.5954 8.68966 51.719 9.47216 51.9661 10.2958C52.2132 11.1195 52.5838 11.8196 53.0369 12.5198C53.4899 13.1787 54.0665 13.7141 54.7254 14.126C55.3844 14.5378 56.1257 14.7437 56.9082 14.7437C57.6495 14.7437 58.3084 14.579 58.885 14.2907C59.4616 13.9612 59.9558 13.5906 60.3676 13.1787C60.7795 12.7669 61.1089 12.3139 61.3149 11.902C61.562 11.4902 61.6855 11.1607 61.6855 10.9548C61.6443 11.4902 61.4384 12.0668 61.1089 12.6021C60.7795 13.1375 60.3676 13.6317 59.8322 14.0848C59.2968 14.5378 58.7203 14.8673 58.0201 15.1556C57.32 15.4027 56.5787 15.5674 55.7962 15.5674C54.7254 15.5674 53.7782 15.4027 52.9957 15.0732C52.2132 14.7437 51.5542 14.2907 51.0189 13.7141C50.4835 13.1375 50.1128 12.5198 49.8245 11.7785C49.5774 11.0783 49.4539 10.2958 49.4539 9.55453C49.4539 8.52492 49.6186 7.66006 49.9481 6.91875C50.2775 6.17743 50.7306 5.55967 51.266 5.06546C51.8013 4.57126 52.4191 4.2006 53.1192 3.99468C53.8194 3.74758 54.5195 3.62402 55.2196 3.62402C55.755 3.62402 56.2904 3.70639 56.7846 3.87113C57.32 4.03586 57.773 4.28297 58.2261 4.61244C58.6791 4.94191 59.0497 5.31257 59.3792 5.72441C59.7087 6.17743 59.9558 6.63046 60.1617 7.16585C60.2441 7.41296 60.2029 7.61888 60.0793 7.78361C59.9558 7.94835 59.7499 8.03072 59.4616 8.03072H51.5954V7.90716ZM54.8078 3.91231C54.2724 3.91231 53.8194 3.99468 53.4075 4.2006C52.9957 4.40652 52.6662 4.65362 52.4191 4.9831C52.172 5.31257 51.9661 5.72441 51.8013 6.13625C51.6778 6.58927 51.5954 7.0423 51.5542 7.53651H58.3084C58.2261 7.24822 58.1025 6.91875 57.9378 6.50691C57.773 6.09507 57.5259 5.68323 57.2376 5.31257C56.9494 4.94191 56.6199 4.61244 56.208 4.32415C55.7962 4.03586 55.302 3.91231 54.8078 3.91231Z" fill="black"/>
<path d="M62.8037 4.61246L64.8629 3.50049V15.5262H62.8037V4.61246ZM65.11 5.23022C65.2748 4.98311 65.5219 4.77719 65.769 4.61246C66.0161 4.44772 66.3044 4.28298 66.6338 4.20062C66.9633 4.07706 67.2516 3.9947 67.5811 3.95351C67.9105 3.91233 68.1988 3.87114 68.5283 3.87114C69.4755 3.87114 70.258 3.9947 70.8758 4.20062C71.4935 4.40654 72.0289 4.73601 72.3996 5.10667C72.8114 5.47732 73.0997 5.93035 73.3056 6.42456C73.5116 6.91876 73.6763 7.45416 73.7587 7.98955C73.841 8.56612 73.8822 9.10152 73.9234 9.71928C73.9234 10.2959 73.9234 10.8724 73.9234 11.4078V15.5674H71.8642V11.2019C71.8642 10.7901 71.8642 10.3782 71.8642 9.84283C71.8642 9.34862 71.823 8.85441 71.7818 8.31902C71.7406 7.78363 71.6171 7.28942 71.4935 6.79521C71.37 6.301 71.1641 5.88916 70.917 5.47732C70.6699 5.10667 70.2992 4.77719 69.8874 4.53009C69.4755 4.28298 68.9401 4.15943 68.2812 4.15943C67.7458 4.15943 67.334 4.20062 66.9633 4.28298C66.5926 4.36535 66.3044 4.44772 66.0573 4.53009C65.8101 4.61246 65.6042 4.73601 65.4807 4.85956C65.3159 5.0243 65.1924 5.14785 65.11 5.23022Z" fill="black"/>
</g>
<defs>
<clipPath id="clip0_1393_427">
<rect width="78.0849" height="32" fill="white"/>
</clipPath>
</defs>
</svg>
