<?xml version="1.0" encoding="UTF-8"?>
<svg version="1.1" xmlns="http://www.w3.org/2000/svg" width="51" height="36">
<path d="M0 0 C1.5078125 1.4609375 1.5078125 1.4609375 3.125 3.375 C3.66382813 4.00148438 4.20265625 4.62796875 4.7578125 5.2734375 C6 7 6 7 6 9 C4.70766393 10.37310707 3.37562854 11.71034824 2 13 C2.495 13.37125 2.99 13.7425 3.5 14.125 C5 16 5 16 5.375 19 C4.95708042 22.34335664 4.40745113 22.86004344 2 25 C2.3609375 25.55429687 2.721875 26.10859375 3.09375 26.6796875 C3.5578125 27.40414063 4.021875 28.12859375 4.5 28.875 C4.9640625 29.59429688 5.428125 30.31359375 5.90625 31.0546875 C7 33 7 33 7 35 C1.39 35 -4.22 35 -10 35 C-8.31482096 30.7870524 -6.56523798 27.67684111 -4 24 C-4.495 23.62875 -4.99 23.2575 -5.5 22.875 C-7 21 -7 21 -7.375 18 C-7 15 -7 15 -5.5 13.125 C-5.005 12.75375 -4.51 12.3825 -4 12 C-5.65 10.02 -7.3 8.04 -9 6 C-3.15384615 0 -3.15384615 0 0 0 Z M-2 2 C-3.32 3.32 -4.64 4.64 -6 6 C-3.525 8.97 -3.525 8.97 -1 12 C0.32 11.01 1.64 10.02 3 9 C1.70700306 6.11562221 0.34058637 4.12780579 -2 2 Z M-5 16 C-5.04063832 17.66617115 -5.042721 19.33388095 -5 21 C-3.02 21.66 -1.04 22.32 1 23 C1.99 22.01 2.98 21.02 4 20 C3.34 18.35 2.68 16.7 2 15 C-1.80621045 14.56152641 -1.80621045 14.56152641 -5 16 Z M-2 25 C-2.83905565 26.12073862 -3.67107831 27.24674547 -4.5 28.375 C-4.9640625 29.00148438 -5.428125 29.62796875 -5.90625 30.2734375 C-7.17838101 31.94094613 -7.17838101 31.94094613 -7 34 C-3.37 34 0.26 34 4 34 C2.22157001 29.55392503 1.35585467 28.0202692 -2 25 Z " fill="#000000" transform="translate(20,0)"/>
<path d="M0 0 C0.598125 0.350625 1.19625 0.70125 1.8125 1.0625 C1.8125 2.3825 1.8125 3.7025 1.8125 5.0625 C-0.5 5.75 -0.5 5.75 -3.1875 6.0625 C-5 4.625 -5 4.625 -6.1875 3.0625 C-5.8575 2.0725 -5.5275 1.0825 -5.1875 0.0625 C-2.1875 -0.9375 -2.1875 -0.9375 0 0 Z M-2.1875 1.0625 C-2.8475 1.7225 -3.5075 2.3825 -4.1875 3.0625 C-2.8675 3.3925 -1.5475 3.7225 -0.1875 4.0625 C-0.5175 3.0725 -0.8475 2.0825 -1.1875 1.0625 C-1.5175 1.0625 -1.8475 1.0625 -2.1875 1.0625 Z " fill="#000000" transform="translate(38.1875,26.9375)"/>
<path d="M0 0 C1.65 0.33 3.3 0.66 5 1 C5 2.65 5 4.3 5 6 C3.35 6.33 1.7 6.66 0 7 C-0.66 5.68 -1.32 4.36 -2 3 C-1.34 2.01 -0.68 1.02 0 0 Z M1 2 C0.67 2.99 0.34 3.98 0 5 C0.99 5 1.98 5 3 5 C3 4.01 3 3.02 3 2 C2.34 2 1.68 2 1 2 Z " fill="#000000" transform="translate(28,10)"/>
<path d="M0 0 C0.66 0.66 1.32 1.32 2 2 C1.625 4.625 1.625 4.625 1 7 C-1.475 6.01 -1.475 6.01 -4 5 C-4 4.01 -4 3.02 -4 2 C-2.68 1.34 -1.36 0.68 0 0 Z M-2 3 C-1.34 3.66 -0.68 4.32 0 5 C0 4.34 0 3.68 0 3 C-0.66 3 -1.32 3 -2 3 Z " fill="#000000" transform="translate(33,19)"/>
</svg>
