<?xml version="1.0" encoding="UTF-8"?>
<!DOCTYPE svg PUBLIC "-//W3C//DTD SVG 1.1//EN" "http://www.w3.org/Graphics/SVG/1.1/DTD/svg11.dtd">
<svg xmlns="http://www.w3.org/2000/svg" version="1.1" width="54px" height="38px" style="shape-rendering:geometricPrecision; text-rendering:geometricPrecision; image-rendering:optimizeQuality; fill-rule:evenodd; clip-rule:evenodd" xmlns:xlink="http://www.w3.org/1999/xlink">
<g><path style="opacity:0.512" fill="#000000" d="M 21.5,-0.5 C 22.1667,-0.5 22.8333,-0.5 23.5,-0.5C 27.8766,3.76601 30.0432,9.09935 30,15.5C 31.0477,10.278 33.881,6.27802 38.5,3.5C 43.1813,11.4719 40.848,16.1386 31.5,17.5C 30.1667,21.1667 30.1667,24.8333 31.5,28.5C 34.1667,27.8333 36.8333,27.1667 39.5,26.5C 39.8333,28.5 40.1667,30.5 40.5,32.5C 35.5621,33.6463 30.8954,35.313 26.5,37.5C 25.8333,37.5 25.1667,37.5 24.5,37.5C 23.8466,36.1932 23.1799,34.8599 22.5,33.5C 24.5543,31.8062 26.8877,30.6395 29.5,30C 28.912,26.4018 27.912,22.9018 26.5,19.5C 22.5967,19.8023 18.5967,19.3023 14.5,18C 11.5088,15.8586 10.3421,13.0252 11,9.5C 15.4795,9.74644 19.9795,10.9131 24.5,13C 25.7014,13.9025 26.5348,15.0692 27,16.5C 27.7975,14.7412 27.6309,13.0745 26.5,11.5C 21.475,8.79487 19.8083,4.79487 21.5,-0.5 Z M 23.5,3.5 C 25.9137,4.40555 26.747,6.07222 26,8.5C 24.117,7.34738 23.2837,5.68072 23.5,3.5 Z M 37.5,6.5 C 39.9202,10.6978 38.5869,13.6978 33.5,15.5C 32.4173,14.635 32.2506,13.635 33,12.5C 34.332,10.34 35.832,8.34004 37.5,6.5 Z M 12.5,12.5 C 17.1962,11.4606 21.1962,12.9606 24.5,17C 19.3746,18.1295 15.3746,16.6295 12.5,12.5 Z M 34.5,29.5 C 35.552,29.3505 36.552,29.5172 37.5,30C 33.5669,32.7563 29.2336,34.0897 24.5,34C 28.0609,32.7679 31.3943,31.2679 34.5,29.5 Z"/></g>
<g><path style="opacity:0.472" fill="#000000" d="M 39.5,17.5 C 40.5,17.5 41.5,17.5 42.5,17.5C 42.5,18.8333 42.5,20.1667 42.5,21.5C 39.9885,21.838 37.6552,21.838 35.5,21.5C 36.5487,19.7844 37.882,18.4511 39.5,17.5 Z"/></g>
<g><path style="opacity:0.401" fill="#000000" d="M 18.5,24.5 C 21.9828,23.9159 24.9828,24.7492 27.5,27C 26.5509,27.6172 25.7175,27.4506 25,26.5C 22.6005,29.6138 20.1005,29.9471 17.5,27.5C 18.1272,26.5832 18.4606,25.5832 18.5,24.5 Z"/></g>
</svg>
