<?xml version="1.0" encoding="UTF-8"?>
<!DOCTYPE svg PUBLIC "-//W3C//DTD SVG 1.1//EN" "http://www.w3.org/Graphics/SVG/1.1/DTD/svg11.dtd">
<svg xmlns="http://www.w3.org/2000/svg" version="1.1" width="56px" height="39px" style="shape-rendering:geometricPrecision; text-rendering:geometricPrecision; image-rendering:optimizeQuality; fill-rule:evenodd; clip-rule:evenodd" xmlns:xlink="http://www.w3.org/1999/xlink">
<g><path style="opacity:0.472" fill="#000000" d="M 16.5,4.5 C 15.5,4.5 14.5,4.5 13.5,4.5C 12.5449,7.26269 12.3782,6.26269 13,1.5C 14.3561,0.619828 15.8561,0.286495 17.5,0.5C 17.5674,1.95875 17.2341,3.29208 16.5,4.5 Z"/></g>
<g><path style="opacity:0.456" fill="#000000" d="M 16.5,4.5 C 18.8333,5.83333 21.1667,5.83333 23.5,4.5C 23.8026,12.0818 21.6359,13.0818 17,7.5C 16.5172,6.55198 16.3505,5.55198 16.5,4.5 Z"/></g>
<g><path style="opacity:0.426" fill="#000000" d="M 40.5,4.5 C 42.4352,5.14952 44.4352,5.48285 46.5,5.5C 46.0571,8.62378 44.3905,10.9571 41.5,12.5C 39.8301,9.88722 39.4968,7.22055 40.5,4.5 Z"/></g>
<g><path style="opacity:0.286" fill="#000000" d="M 9.5,7.5 C 10.7562,7.46141 11.7562,7.96141 12.5,9C 11.1667,9.66667 9.83333,9.66667 8.5,9C 9.05596,8.61742 9.38929,8.11742 9.5,7.5 Z"/></g>
<g><path style="opacity:0.427" fill="#000000" d="M 25.5,8.5 C 27.4646,8.94835 27.7979,9.94835 26.5,11.5C 25.6143,10.675 25.281,9.67504 25.5,8.5 Z"/></g>
<g><path style="opacity:0.443" fill="#000000" d="M 33.5,10.5 C 40.3359,12.6651 42.0025,16.8318 38.5,23C 35.8333,24.6667 33.1667,26.3333 30.5,28C 33.5208,29.5388 34.8541,32.0388 34.5,35.5C 32.1944,35.0074 29.861,34.6741 27.5,34.5C 27.8146,32.7741 27.9813,31.1075 28,29.5C 24.7515,31.2071 21.5849,33.0404 18.5,35C 11.1809,35.3153 8.68093,31.8153 11,24.5C 18.3123,19.4326 25.8123,14.7659 33.5,10.5 Z M 34.5,12.5 C 38.2297,14.1537 39.2297,16.8204 37.5,20.5C 34.828,18.5745 33.828,15.9079 34.5,12.5 Z M 31.5,13.5 C 32.0424,16.6029 33.3757,19.4362 35.5,22C 30.5,25.1667 25.5,28.3333 20.5,31.5C 19.7594,28.1269 18.5928,25.1269 17,22.5C 21.9813,19.6002 26.8146,16.6002 31.5,13.5 Z M 16.5,31.5 C 17.7733,32.0768 17.7733,32.7435 16.5,33.5C 15.537,33.0302 15.537,32.3635 16.5,31.5 Z"/></g>
<g><path style="opacity:0.476" fill="#000000" d="M 14.5,11.5 C 17.7794,12.0306 19.1128,14.0306 18.5,17.5C 15.525,17.2866 12.8584,16.2866 10.5,14.5C 11.6243,13.1408 12.9577,12.1408 14.5,11.5 Z"/></g>
<g><path style="opacity:0.342" fill="#000000" d="M 19.5,13.5 C 20.4971,12.2875 21.4971,12.4542 22.5,14C 21.4232,14.4696 20.4232,14.3029 19.5,13.5 Z"/></g>
<g><path style="opacity:0.262" fill="#000000" d="M 9.5,19.5 C 10.3764,19.3691 11.0431,19.7025 11.5,20.5C 9.19157,21.8734 8.52491,21.5401 9.5,19.5 Z"/></g>
<g><path style="opacity:0.366" fill="#000000" d="M 36.5,33.5 C 38.332,34.1405 38.6653,35.1405 37.5,36.5C 36.6143,35.675 36.281,34.675 36.5,33.5 Z"/></g>
<g><path style="opacity:0.324" fill="#000000" d="M 22.5,38.5 C 22.1667,38.5 21.8333,38.5 21.5,38.5C 21.238,37.0222 21.5713,35.6888 22.5,34.5C 23.6256,35.8084 23.6256,37.1417 22.5,38.5 Z"/></g>
</svg>
