<?xml version="1.0" encoding="UTF-8"?>
<!DOCTYPE svg PUBLIC "-//W3C//DTD SVG 1.1//EN" "http://www.w3.org/Graphics/SVG/1.1/DTD/svg11.dtd">
<svg xmlns="http://www.w3.org/2000/svg" version="1.1" width="55px" height="39px" style="shape-rendering:geometricPrecision; text-rendering:geometricPrecision; image-rendering:optimizeQuality; fill-rule:evenodd; clip-rule:evenodd" xmlns:xlink="http://www.w3.org/1999/xlink">
<g><path style="opacity:0.518" fill="#000000" d="M 25.5,0.5 C 26.5,0.5 27.5,0.5 28.5,0.5C 29.034,4.10236 29.034,7.60236 28.5,11C 23.8365,11.9459 19.1699,12.7792 14.5,13.5C 14.5999,10.333 13.9332,7.33305 12.5,4.5C 12.8333,3.5 13.5,2.83333 14.5,2.5C 18.1756,7.66577 19.8423,7.33244 19.5,1.5C 20.5,1.5 21.5,1.5 22.5,1.5C 23.605,5.1713 24.605,4.83797 25.5,0.5 Z M 25.5,5.5 C 26.4345,6.56764 26.7678,7.90097 26.5,9.5C 23.333,9.40013 20.333,10.0668 17.5,11.5C 15.8693,7.27154 16.7026,6.60488 20,9.5C 20.9277,7.66518 22.0944,7.33184 23.5,8.5C 24.9185,7.99525 25.5852,6.99525 25.5,5.5 Z"/></g>
<g><path style="opacity:0.518" fill="#000000" d="M 36.5,20.5 C 35.4625,21.9303 34.7959,23.597 34.5,25.5C 32.7337,28.1879 31.067,31.0212 29.5,34C 28.1807,34.195 26.8474,34.0283 25.5,33.5C 22.5242,30.6979 19.3575,28.0312 16,25.5C 11.9548,17.257 14.4548,13.9237 23.5,15.5C 30.8654,10.1973 35.1988,11.864 36.5,20.5 Z M 29.5,14.5 C 32.7343,14.2366 34.0676,15.7366 33.5,19C 32.6923,23.7808 30.6923,27.9475 27.5,31.5C 23.5584,29.0617 20.0584,26.0617 17,22.5C 16.5065,20.8659 16.3398,19.1992 16.5,17.5C 17.9305,17.5792 19.2638,17.2458 20.5,16.5C 21.8333,17.1667 23.1667,17.8333 24.5,18.5C 26.21,17.1128 27.8767,15.7794 29.5,14.5 Z"/></g>
<g><path style="opacity:0.478" fill="#000000" d="M 36.5,20.5 C 38.4286,20.2308 40.0953,20.7308 41.5,22C 40.6667,22.1667 39.8333,22.3333 39,22.5C 37.6244,22.3158 36.7911,21.6491 36.5,20.5 Z"/></g>
<g><path style="opacity:0.52" fill="#000000" d="M 34.5,25.5 C 36.1033,25.3118 37.4366,25.8118 38.5,27C 36.6476,27.7726 35.3143,27.2726 34.5,25.5 Z"/></g>
<g><path style="opacity:0.431" fill="#000000" d="M 14.5,29.5 C 17.0414,30.6228 17.0414,31.9561 14.5,33.5C 13.3744,32.1916 13.3744,30.8583 14.5,29.5 Z"/></g>
<g><path style="opacity:0.502" fill="#000000" d="M 19.5,30.5 C 20.7928,32.3635 20.7928,34.3635 19.5,36.5C 18.3058,34.4844 18.3058,32.4844 19.5,30.5 Z"/></g>
<g><path style="opacity:0.528" fill="#000000" d="M 32.5,30.5 C 33.9953,30.4148 34.9953,31.0815 35.5,32.5C 33.6043,33.6394 32.6043,32.9728 32.5,30.5 Z"/></g>
<g><path style="opacity:0.456" fill="#000000" d="M 25.5,33.5 C 26.5009,34.7887 26.3342,36.1221 25,37.5C 22.8632,35.6936 23.0299,34.3603 25.5,33.5 Z"/></g>
</svg>
