<?xml version="1.0" encoding="UTF-8"?>
<!DOCTYPE svg PUBLIC "-//W3C//DTD SVG 1.1//EN" "http://www.w3.org/Graphics/SVG/1.1/DTD/svg11.dtd">
<svg xmlns="http://www.w3.org/2000/svg" version="1.1" width="51px" height="36px" style="shape-rendering:geometricPrecision; text-rendering:geometricPrecision; image-rendering:optimizeQuality; fill-rule:evenodd; clip-rule:evenodd" xmlns:xlink="http://www.w3.org/1999/xlink">
<g><path style="opacity:0.465" fill="#000000" d="M 17.5,-0.5 C 18.1667,-0.5 18.8333,-0.5 19.5,-0.5C 21.0663,2.41233 23.0663,5.079 25.5,7.5C 23.7227,8.90101 22.056,10.401 20.5,12C 25.7692,16.1805 25.7692,20.1805 20.5,24C 22.625,27.0823 24.625,30.2489 26.5,33.5C 20.8333,34.8333 15.1667,34.8333 9.5,33.5C 11.4612,29.742 13.7945,26.242 16.5,23C 12.7873,21.3088 11.6206,18.4755 13,14.5C 13.9025,13.2986 15.0692,12.4652 16.5,12C 14.1255,9.96105 12.1255,7.62772 10.5,5C 12.9025,3.14702 15.2359,1.31369 17.5,-0.5 Z M 17.5,1.5 C 19.1139,3.4559 20.7806,5.4559 22.5,7.5C 21.5197,8.98138 20.353,10.3147 19,11.5C 16.7911,9.62663 14.9578,7.45997 13.5,5C 15.0931,4.05127 16.4264,2.88461 17.5,1.5 Z M 15.5,14.5 C 21.1623,13.1755 23.4956,15.1755 22.5,20.5C 20.428,22.433 18.0947,22.433 15.5,20.5C 14.3058,18.4844 14.3058,16.4844 15.5,14.5 Z M 17.5,24.5 C 26.552,32.7031 24.8853,35.3698 12.5,32.5C 14.1933,29.8159 15.86,27.1492 17.5,24.5 Z"/></g>
<g><path style="opacity:0.385" fill="#000000" d="M 27.5,9.5 C 31.9346,9.75208 33.268,11.9188 31.5,16C 25.7783,16.4527 24.445,14.286 27.5,9.5 Z M 28.5,11.5 C 30.0481,11.8212 30.7148,12.8212 30.5,14.5C 27.7524,14.5983 27.0857,13.5983 28.5,11.5 Z"/></g>
<g><path style="opacity:0.421" fill="#000000" d="M 32.5,18.5 C 33.2891,18.7828 33.9558,19.2828 34.5,20C 33.8971,21.8254 33.2304,23.6587 32.5,25.5C 30.8333,24.3333 29.1667,23.1667 27.5,22C 28.9555,20.3743 30.6221,19.2076 32.5,18.5 Z M 30.5,22.5 C 31.0768,21.2267 31.7435,21.2267 32.5,22.5C 32.0302,23.463 31.3635,23.463 30.5,22.5 Z"/></g>
<g><path style="opacity:0.4" fill="#000000" d="M 35.5,25.5 C 41.6594,27.7471 41.826,30.0805 36,32.5C 30.3945,30.0748 30.2279,27.7415 35.5,25.5 Z M 35.5,27.5 C 37.6246,28.3676 37.7913,29.3676 36,30.5C 32.9628,29.6802 32.7961,28.6802 35.5,27.5 Z"/></g>
</svg>
